<?xml version="1.0" encoding="UTF-8"?>
<svg version="1.1" xmlns="http://www.w3.org/2000/svg" width="584" height="156">
<path d="M0 0 C3.47763421 1.74039283 6.6520783 3.89369502 9.875 6.0625 C11.82335161 7.33986529 13.77260525 8.61585555 15.72265625 9.890625 C16.7398877 10.56029297 17.75711914 11.22996094 18.80517578 11.91992188 C24.25497978 15.46816657 29.78640049 18.88478767 35.3125 22.3125 C37.35110742 23.57806373 39.38894 24.84487695 41.42578125 26.11328125 C42.28598877 26.64735596 43.14619629 27.18143066 44.0324707 27.73168945 C46 29 46 29 47 30 C47.40136719 32.81982422 47.40136719 32.81982422 47 36 C44.74707031 38.05126953 44.74707031 38.05126953 41.578125 39.8828125 C40.72628632 40.38794876 40.72628632 40.38794876 39.85723877 40.90328979 C37.99968637 41.99842149 36.12580084 43.0614826 34.25 44.125 C32.96947943 44.87160307 31.69018615 45.62031494 30.41210938 46.37109375 C27.83975718 47.87903276 25.26135165 49.37570915 22.67773438 50.86425781 C19.36623785 52.77814534 16.091532 54.74716235 12.828125 56.7421875 C11.91901367 57.2976123 11.00990234 57.85303711 10.07324219 58.42529297 C8.39602178 59.45167548 6.71955162 60.4792853 5.04394531 61.50830078 C3.92391113 62.18481689 3.92391113 62.18481689 2.78125 62.875 C2.14251953 63.26429687 1.50378906 63.65359375 0.84570312 64.0546875 C-1.1096601 65.05616454 -2.83758945 65.62362307 -5 66 C-12.2243018 63.45840129 -18.91574578 57.78576739 -25.24609375 53.515625 C-30.10230867 50.24579851 -35.04189654 47.11298803 -40 44 C-40 46.31 -40 48.62 -40 51 C-38.61554688 51.76570313 -38.61554688 51.76570313 -37.203125 52.546875 C-35.88521767 53.28089283 -34.56752831 54.01530208 -33.25 54.75 C-32.19353271 55.33551636 -32.19353271 55.33551636 -31.11572266 55.93286133 C-26.89991644 58.29252268 -22.77315901 60.7482943 -18.6953125 63.33984375 C-17.81069336 63.89510742 -16.92607422 64.45037109 -16.01464844 65.02246094 C-14.27539331 66.11954936 -12.54645346 67.23319022 -10.82910156 68.36425781 C-6.27938443 71.31912077 -6.27938443 71.31912077 -1.05078125 71.73046875 C3.46234795 69.17052479 7.84344755 66.46219505 12.1875 63.625 C14.14439188 62.36436696 16.10142598 61.10395467 18.05859375 59.84375 C19.04456543 59.20566406 20.03053711 58.56757812 21.04638672 57.91015625 C25.60269932 54.96350475 30.17259174 52.03874335 34.75 49.125 C35.55332764 48.60760254 36.35665527 48.09020508 37.18432617 47.55712891 C38.29191284 46.85209229 38.29191284 46.85209229 39.421875 46.1328125 C40.06737305 45.71918457 40.71287109 45.30555664 41.37792969 44.87939453 C43 44 43 44 45 44 C45.68600557 47.52452636 45.85977864 50.49386483 45 54 C41.92998608 57.24723567 38.21019074 59.18328812 34.3125 61.3125 C32.11279788 62.5903141 29.91358881 63.86897728 27.71484375 65.1484375 C26.59577637 65.78362305 25.47670898 66.41880859 24.32373047 67.07324219 C21.13759444 68.92023686 18.03517447 70.85442964 14.94140625 72.8515625 C14.00192139 73.45572998 13.06243652 74.05989746 12.09448242 74.68237305 C10.31844692 75.82860873 8.54627809 76.98086417 6.77856445 78.13989258 C5.97249756 78.64931396 5.16643066 79.15873535 4.3359375 79.68359375 C3.29252197 80.35733032 3.29252197 80.35733032 2.22802734 81.04467773 C-0.79025816 82.33884288 -2.73081551 82.39678358 -6 82 C-8.50774627 80.81213925 -10.7205276 79.61640046 -13.05859375 78.16015625 C-14.05790672 77.55958656 -14.05790672 77.55958656 -15.07740784 76.94688416 C-17.20513268 75.66432231 -19.32128633 74.36394844 -21.4375 73.0625 C-22.82413361 72.22209143 -24.21149832 71.38288789 -25.59960938 70.54492188 C-28.36004927 68.87630472 -31.11518089 67.19939748 -33.86669922 65.51611328 C-36.67035344 63.80370821 -39.48450629 62.11077547 -42.30908203 60.43310547 C-42.99841324 60.02313828 -43.68774445 59.61317108 -44.39796448 59.19078064 C-45.70833269 58.41278336 -47.02006606 57.63707933 -48.33335876 56.86402893 C-50.8124669 55.39011289 -52.95138969 54.04861031 -55 52 C-55.22705078 49.47802734 -55.22705078 49.47802734 -55.1953125 46.3359375 C-55.18886719 45.21445312 -55.18242187 44.09296875 -55.17578125 42.9375 C-55.15902344 41.761875 -55.14226562 40.58625 -55.125 39.375 C-55.11597656 38.19164062 -55.10695313 37.00828125 -55.09765625 35.7890625 C-55.07402812 32.85917477 -55.04108514 29.9296866 -55 27 C-44.62247087 21.1166764 -34.19323347 15.32811763 -23.75 9.5625 C-22.77771957 9.02520264 -22.77771957 9.02520264 -21.78579712 8.47705078 C-19.9149818 7.44344136 -18.04353517 6.41098487 -16.171875 5.37890625 C-15.0797168 4.7763501 -13.98755859 4.17379395 -12.86230469 3.55297852 C-4.94878965 -0.74059613 -4.94878965 -0.74059613 0 0 Z " fill="#F1F1F1" transform="translate(518,14)"/>
<path d="M0 0 C5.28 0 10.56 0 16 0 C19.62094228 7.04893915 22.83855239 14.15667511 25.8125 21.5 C26.42254883 22.98113281 26.42254883 22.98113281 27.04492188 24.4921875 C30 31.74330357 30 31.74330357 30 34 C30.66 34 31.32 34 32 34 C32.10884521 33.31591064 32.21769043 32.63182129 32.32983398 31.92700195 C33.11884054 28.48095473 34.3576404 25.42963821 35.72265625 22.16796875 C35.98759384 21.53135818 36.25253143 20.89474762 36.52549744 20.23884583 C37.36687104 18.21990579 38.21457591 16.20369644 39.0625 14.1875 C39.63648889 12.81332689 40.21006107 11.43897965 40.78320312 10.06445312 C42.18321996 6.70724922 43.59177893 3.35381761 45 0 C50.61 0 56.22 0 62 0 C62 17.82 62 35.64 62 54 C57.38 54 52.76 54 48 54 C47.67 46.08 47.34 38.16 47 30 C43.7 37.92 40.4 45.84 37 54 C33.04 54 29.08 54 25 54 C21.7 46.41 18.4 38.82 15 31 C14.67 38.59 14.34 46.18 14 54 C9.38 54 4.76 54 0 54 C0 36.18 0 18.36 0 0 Z " fill="#E7E7E7" transform="translate(332,49)"/>
<path d="M0 0 C3.62605793 -0.20599942 5.67589758 0.03816577 8.6953125 2.0625 C9.39825439 2.52253418 10.10119629 2.98256836 10.82543945 3.45654297 C11.58429443 3.96588379 12.34314941 4.47522461 13.125 5 C14.80672976 6.08882193 16.49044863 7.17457563 18.17578125 8.2578125 C19.55564209 9.14774902 19.55564209 9.14774902 20.96337891 10.05566406 C26.11050137 13.35134531 31.28635935 16.59494599 36.50848389 19.77050781 C37.70749493 20.50459124 38.90178894 21.24643747 40.09112549 21.99609375 C41.7740459 23.05570376 43.47467445 24.08702725 45.17578125 25.1171875 C46.15458252 25.72159668 47.13338379 26.32600586 48.1418457 26.94873047 C51.86007734 28.3163486 53.45660263 27.61771092 57 26 C59.30732615 24.67584484 61.52390628 23.32267977 63.75 21.875 C65.14392191 20.98862435 66.53850516 20.10328824 67.93359375 19.21875 C68.71718262 18.71988281 69.50077148 18.22101563 70.30810547 17.70703125 C75.20269901 14.60318597 80.1168171 11.53133247 85.04187012 8.47613525 C86.22086597 7.7429307 87.39820357 7.00705281 88.57385254 6.26849365 C90.23937659 5.2222904 91.91060245 4.18518114 93.58203125 3.1484375 C95.03959839 2.23843994 95.03959839 2.23843994 96.52661133 1.31005859 C99 0 99 0 102 0 C102.95286628 3.62240435 103.12433285 6.40011815 102 10 C98.36142819 13.30380125 94.30960242 15.56161037 90.00537109 17.89990234 C87.47867559 19.28598585 85.02288386 20.77372413 82.5625 22.2734375 C80.72335372 23.39119451 78.87238 24.48716608 77.01953125 25.58203125 C74.06559018 27.34017074 71.15869592 29.16127824 68.26171875 31.01171875 C67.45959961 31.51848145 66.65748047 32.02524414 65.83105469 32.54736328 C64.26883921 33.53625652 62.71312039 34.53551024 61.16503906 35.54638672 C60.44928711 35.99643066 59.73353516 36.44647461 58.99609375 36.91015625 C58.36888428 37.31371338 57.7416748 37.71727051 57.09545898 38.13305664 C54.21459974 39.32493957 52.095251 39.30667233 49 39 C46.41381836 37.84179688 46.41381836 37.84179688 43.83984375 36.21875 C42.8866626 35.62723145 41.93348145 35.03571289 40.95141602 34.42626953 C39.95682373 33.79060059 38.96223145 33.15493164 37.9375 32.5 C36.917771 31.86304199 35.89804199 31.22608398 34.84741211 30.56982422 C32.82039902 29.30284042 30.79662887 28.0306514 28.77636719 26.75292969 C25.2249599 24.51065882 21.64595339 22.31549435 18.0625 20.125 C16.37461554 19.08395642 14.686928 18.04259274 13 17 C13 19.31 13 21.62 13 24 C13.70648682 24.26119629 14.41297363 24.52239258 15.14086914 24.79150391 C18.19462687 26.08226479 20.90698913 27.62470274 23.74609375 29.3359375 C24.83083984 29.98820312 25.91558594 30.64046875 27.03320312 31.3125 C28.15662109 31.993125 29.28003906 32.67375 30.4375 33.375 C32.11682617 34.38433594 32.11682617 34.38433594 33.83007812 35.4140625 C42.6484451 40.73124995 42.6484451 40.73124995 45.99243164 43.28759766 C48.85705604 45.25387201 48.85705604 45.25387201 51.99511719 44.96435547 C55.38308812 43.87705573 58.05313394 42.44633849 61.078125 40.5703125 C61.64313217 40.22370071 62.20813934 39.87708893 62.79026794 39.51997375 C64.61585429 38.39722714 66.43279776 37.26125579 68.25 36.125 C69.50437436 35.35068754 70.75934236 34.57733599 72.01489258 33.80493164 C74.51324234 32.26609258 77.00840242 30.72230233 79.50048828 29.17333984 C83.43960201 26.7251006 87.38959247 24.29483074 91.34472656 21.87255859 C92.87594849 20.93461336 94.40533076 19.99365641 95.93261719 19.04931641 C100.88880639 16 100.88880639 16 102 16 C102.55761723 19.48338663 102.66752554 22.52502395 102 26 C100.54101562 27.5012207 100.54101562 27.5012207 98.46875 28.73828125 C97.65027588 29.23875977 96.83180176 29.73923828 95.98852539 30.25488281 C95.00231201 30.83077148 94.01609863 31.40666016 93 32 C91.79526974 32.72348345 90.59147015 33.44851807 89.38842773 34.17480469 C85.25258612 36.6620413 81.09602879 39.11344701 76.9375 41.5625 C74.80160247 42.82256589 72.66614533 44.08336039 70.53164673 45.34579468 C69.16712097 46.15165569 67.80107773 46.95495343 66.43344116 47.75552368 C63.00430716 49.77072819 59.70538471 51.87549674 56.44140625 54.15234375 C53 56 53 56 49.51171875 56.1328125 C45.0663911 54.69883584 41.63738475 52.51111775 37.8125 49.875 C36.43102437 48.92340183 35.04193181 47.98274229 33.64453125 47.0546875 C32.73731323 46.42796143 32.73731323 46.42796143 31.81176758 45.78857422 C30.02010008 44.83498806 30.02010008 44.83498806 27.99511719 45.18994141 C25.69874689 46.12231495 24.26899676 47.24350506 22.43359375 48.90625 C21.78326172 49.48503906 21.13292969 50.06382813 20.46289062 50.66015625 C19.79451172 51.26730469 19.12613281 51.87445313 18.4375 52.5 C17.10657787 53.70204089 15.77208348 54.90014148 14.43359375 56.09375 C13.55272095 56.89329102 13.55272095 56.89329102 12.65405273 57.70898438 C11 59 11 59 8 60 C7.67 59.67 7.34 59.34 7 59 C7.26692182 52.19349358 9.58273017 46.35075854 12.0390625 40.07421875 C13.32699766 37.00622588 13.32699766 37.00622588 12 34 C9.74924895 32.38819184 9.74924895 32.38819184 7.0625 30.9375 C2.17218543 28.17218543 2.17218543 28.17218543 0 26 C-0.22705078 23.38623047 -0.22705078 23.38623047 -0.1953125 20.1171875 C-0.18886719 18.95058594 -0.18242187 17.78398438 -0.17578125 16.58203125 C-0.15902344 15.35871094 -0.14226562 14.13539062 -0.125 12.875 C-0.11597656 11.64394531 -0.10695313 10.41289063 -0.09765625 9.14453125 C-0.07402548 6.09616185 -0.04108054 3.04817618 0 0 Z " fill="#D7D7D7" transform="translate(463,76)"/>
<path d="M0 0 C4.57875 -0.0825 9.1575 -0.165 13.875 -0.25 C15.29796387 -0.28641602 16.72092773 -0.32283203 18.18701172 -0.36035156 C27.7824467 -0.44352184 35.48042658 0.69409464 42.875 7.125 C48.82128132 13.74603665 50.74243245 21.26977839 50.37109375 30.046875 C49.30320671 38.54500765 46.00445679 43.71873212 39.609375 49.30859375 C31.30147354 54.69380532 23.65230191 54.37042321 14 54.1875 C9.38 54.125625 4.76 54.06375 0 54 C0 36.18 0 18.36 0 0 Z M15 10 C15 21.22 15 32.44 15 44 C24.95656829 43.66702364 24.95656829 43.66702364 31.66015625 38.765625 C35.70995711 33.42886119 35.74545932 27.42383461 35 21 C33.70878163 17.13332444 31.79203194 14.59402395 28.5 12.125 C23.48413228 9.86785953 20.92440338 10 15 10 Z " fill="#E0E0E0" transform="translate(230,49)"/>
<path d="M0 0 C4.5375 -0.12375 9.075 -0.2475 13.75 -0.375 C15.15475586 -0.42962402 16.55951172 -0.48424805 18.00683594 -0.54052734 C27.59156939 -0.66568604 35.90884544 1.11232001 43.02807617 7.94702148 C48.28373533 14.12252552 50.38063384 21.61535589 49.9375 29.625 C48.92660619 37.32083678 45.97663275 42.97419519 40 48 C33.64537084 52.47741336 29.33554311 54.13334338 21.484375 54.09765625 C20.35741211 54.09515869 19.23044922 54.09266113 18.06933594 54.09008789 C15.93126465 54.07643188 15.93126465 54.07643188 13.75 54.0625 C9.2125 54.041875 4.675 54.02125 0 54 C0 36.18 0 18.36 0 0 Z M14 10 C14 21.22 14 32.44 14 44 C21.20706219 44 26.13933295 43.78538634 31.375 38.6875 C35.18065522 32.39353175 35.59349355 27.10143864 34 20 C31.39819132 14.88930438 28.48476884 12.27774858 23.125 10.3125 C20.11393512 9.86969634 17.04344982 10 14 10 Z " fill="#E7E7E7" transform="translate(17,49)"/>
<path d="M0 0 C1.58206057 0.00667536 3.16410534 0.0186375 4.74609375 0.03515625 C5.55240234 0.03966797 6.35871094 0.04417969 7.18945312 0.04882812 C9.18753131 0.06065107 11.18557158 0.07858711 13.18359375 0.09765625 C15.92663427 6.80880195 18.47078072 13.56400045 20.85546875 20.41015625 C21.18274963 21.34569336 21.51003052 22.28123047 21.847229 23.24511719 C22.53064473 25.20093513 23.2129048 27.15715724 23.89404297 29.11376953 C24.94100219 32.11892116 25.99374963 35.12200447 27.046875 38.125 C27.71258794 40.03243054 28.37796487 41.93997839 29.04296875 43.84765625 C29.51630646 45.19597534 29.51630646 45.19597534 29.99920654 46.5715332 C30.43030731 47.81422974 30.43030731 47.81422974 30.87011719 49.08203125 C31.25173004 50.17596191 31.25173004 50.17596191 31.64105225 51.29199219 C32.18359375 53.09765625 32.18359375 53.09765625 32.18359375 55.09765625 C26.90359375 55.09765625 21.62359375 55.09765625 16.18359375 55.09765625 C15.19359375 52.45765625 14.20359375 49.81765625 13.18359375 47.09765625 C7.24359375 46.76765625 1.30359375 46.43765625 -4.81640625 46.09765625 C-5.47640625 49.06765625 -6.13640625 52.03765625 -6.81640625 55.09765625 C-12.09640625 55.09765625 -17.37640625 55.09765625 -22.81640625 55.09765625 C-20.78020822 48.18787772 -18.6018884 41.34894861 -16.27734375 34.53125 C-15.95101959 33.57114517 -15.62469543 32.61104034 -15.28848267 31.62184143 C-14.60536507 29.61403138 -13.92130303 27.60654242 -13.23632812 25.59936523 C-12.18398415 22.51339112 -11.13679054 19.42569937 -10.08984375 16.33789062 C-9.42348732 14.38140473 -8.75683163 12.42502072 -8.08984375 10.46875 C-7.61954239 9.07987831 -7.61954239 9.07987831 -7.13973999 7.66294861 C-6.84918732 6.81438797 -6.55863464 5.96582733 -6.25927734 5.09155273 C-6.00407318 4.34228012 -5.74886902 3.59300751 -5.4859314 2.82102966 C-4.21469964 -0.45115065 -3.93070174 0.1005809 0 0 Z M4.18359375 19.09765625 C3.34660989 21.55480172 2.51386951 24.01324482 1.68359375 26.47265625 C1.44511719 27.17132813 1.20664063 27.87 0.9609375 28.58984375 C-0.35376537 32.26168704 -0.35376537 32.26168704 -0.81640625 36.09765625 C2.81359375 36.09765625 6.44359375 36.09765625 10.18359375 36.09765625 C7.89837034 27.53284877 7.89837034 27.53284877 5.18359375 19.09765625 C4.85359375 19.09765625 4.52359375 19.09765625 4.18359375 19.09765625 Z " fill="#E3E3E3" transform="translate(192.81640625,47.90234375)"/>
<path d="M0 0 C11.76811926 -1.44426918 11.76811926 -1.44426918 17 0 C20.80988586 3.49412086 22.85983845 7.33846063 25 12 C25.33 12.33 25.66 12.66 26 13 C26.391875 12.0615625 26.78375 11.123125 27.1875 10.15625 C28.9808749 6.38053317 30.72952675 2.70435019 34 0 C39.1701802 -1.63316564 44.72926592 -0.74839307 50 0 C48.6652184 3.63384178 47.03315912 6.68676738 44.890625 9.90625 C44.30152344 10.81503906 43.71242187 11.72382812 43.10546875 12.66015625 C41.86379434 14.56057161 40.61106635 16.45380855 39.34765625 18.33984375 C38.47173828 19.70302734 38.47173828 19.70302734 37.578125 21.09375 C37.03575195 21.91552734 36.49337891 22.73730469 35.93457031 23.58398438 C34.73334537 25.98615756 34.73334537 25.98615756 35.66479492 28.50927734 C36.98304311 30.96836823 38.32678314 33.37885799 39.78515625 35.7578125 C40.31560547 36.63050781 40.84605469 37.50320312 41.39257812 38.40234375 C41.94365234 39.30082031 42.49472656 40.19929688 43.0625 41.125 C44.16025549 42.91761814 45.25542766 44.71182152 46.34765625 46.5078125 C46.83242432 47.29816895 47.31719238 48.08852539 47.81665039 48.90283203 C49 51 49 51 50 54 C38.92122608 55.19698638 38.92122608 55.19698638 34 54 C30.57816852 51.1545873 28.87139789 47.98771027 27 44 C26.34 43.01 25.68 42.02 25 41 C24.61972656 41.9384375 24.23945313 42.876875 23.84765625 43.84375 C22.07054268 47.6556586 20.33459857 51.32474483 17 54 C11.50330678 55.65307182 5.5951151 54.74389598 0 54 C1.16072654 51.91316185 2.32744554 49.83019047 3.5 47.75 C4.03052979 46.80459351 4.03052979 46.80459351 4.57177734 45.84008789 C7.61689953 40.49267081 11.04447733 35.5556354 14.7265625 30.62109375 C16.32745917 28.0889947 16.32745917 28.0889947 15.25146484 25.61767578 C14.05399519 23.11294117 12.75272317 20.82869782 11.25 18.49609375 C10.7240625 17.67302734 10.198125 16.84996094 9.65625 16.00195312 C9.1096875 15.15568359 8.563125 14.30941406 8 13.4375 C6.91495625 11.74979634 5.83156038 10.06103184 4.75 8.37109375 C4.27046875 7.62786865 3.7909375 6.88464355 3.296875 6.11889648 C2.07552233 4.123392 1.01115579 2.10846254 0 0 Z " fill="#E0E0E0" transform="translate(116,49)"/>
<path d="M0 0 C0.71353638 0.00202423 1.42707275 0.00404846 2.16223145 0.00613403 C2.89091431 0.00517731 3.61959717 0.00422058 4.37036133 0.00323486 C5.91377855 0.00255318 7.45719861 0.00440666 9.00061035 0.00857544 C11.37095544 0.01392391 13.74111104 0.00863011 16.1114502 0.00222778 C17.60754437 0.00288857 19.10363842 0.00416973 20.59973145 0.00613403 C21.31326782 0.0041098 22.0268042 0.00208557 22.76196289 0 C27.76602953 0.02399462 27.76602953 0.02399462 28.88098145 1.13894653 C28.88098145 4.43894653 28.88098145 7.73894653 28.88098145 11.13894653 C22.28098145 11.13894653 15.68098145 11.13894653 8.88098145 11.13894653 C8.88098145 14.76894653 8.88098145 18.39894653 8.88098145 22.13894653 C14.49098145 22.13894653 20.10098145 22.13894653 25.88098145 22.13894653 C25.88098145 25.76894653 25.88098145 29.39894653 25.88098145 33.13894653 C20.27098145 33.13894653 14.66098145 33.13894653 8.88098145 33.13894653 C8.88098145 37.09894653 8.88098145 41.05894653 8.88098145 45.13894653 C15.48098145 45.13894653 22.08098145 45.13894653 28.88098145 45.13894653 C28.88098145 48.43894653 28.88098145 51.73894653 28.88098145 55.13894653 C17.33098145 55.13894653 5.78098145 55.13894653 -6.11901855 55.13894653 C-6.14192051 47.46679048 -6.16184976 39.79475206 -6.1739502 32.12258911 C-6.17899232 29.51028035 -6.18582581 26.89797442 -6.19445801 24.28567505 C-6.20652891 20.54014385 -6.21224791 16.79464982 -6.2166748 13.04910278 C-6.22183609 11.87307999 -6.22699738 10.69705719 -6.23231506 9.48539734 C-6.23242836 7.86382973 -6.23242836 7.86382973 -6.23254395 6.20950317 C-6.23476456 5.25241959 -6.23698517 4.295336 -6.23927307 3.30924988 C-6.00678984 -0.88651052 -3.63589302 0.0174342 0 0 Z " fill="#DDDDDD" transform="translate(293.1190185546875,47.861053466796875)"/>
<path d="M0 0 C11.22 0 22.44 0 34 0 C34 3.63 34 7.26 34 11 C27.73 11 21.46 11 15 11 C15 14.63 15 18.26 15 22 C20.61 22 26.22 22 32 22 C33 29 33 29 32 33 C26.39 33 20.78 33 15 33 C15 36.96 15 40.92 15 45 C21.27 45 27.54 45 34 45 C34 48.3 34 51.6 34 55 C22.78 55 11.56 55 0 55 C0 36.85 0 18.7 0 0 Z " fill="#FBFBFB" transform="translate(74,48)"/>
<path d="M0 0 C5.61 0 11.22 0 17 0 C18.33783337 2.95637285 19.67043139 5.91491314 21 8.875 C21.3815625 9.71675781 21.763125 10.55851562 22.15625 11.42578125 C22.5171875 12.23144531 22.878125 13.03710938 23.25 13.8671875 C23.58515625 14.61081543 23.9203125 15.35444336 24.265625 16.12060547 C25 18 25 18 25 20 C25.99 20 26.98 20 28 20 C28.103125 19.32453125 28.20625 18.6490625 28.3125 17.953125 C29.14774712 14.36535898 30.52290823 11.10829355 32 7.75 C32.27328125 7.11320312 32.5465625 6.47640625 32.828125 5.8203125 C34.85925752 1.14074248 34.85925752 1.14074248 36 0 C38.69654854 -0.07319621 41.36691458 -0.09242537 44.0625 -0.0625 C44.82111328 -0.05798828 45.57972656 -0.05347656 46.36132812 -0.04882812 C48.24091871 -0.0370068 50.12046899 -0.01907078 52 0 C50.65948314 4.45518591 48.87683216 8.23389022 46.55859375 12.26171875 C38.85539743 25.98795145 32.40020446 37.73878713 34 54 C29.05 54 24.1 54 19 54 C19.02642578 52.90945312 19.05285156 51.81890625 19.08007812 50.6953125 C19.06795823 37.96229377 15.53515555 29.04305059 9.5 18 C8.69098971 16.46252319 7.88498307 14.92346203 7.08203125 13.3828125 C5.62558213 10.59920739 4.15410715 7.82510416 2.65820312 5.0625 C1.7506909 3.38643502 0.85238163 1.70476326 0 0 Z " fill="#DEDEDE" transform="translate(400,49)"/>
<path d="M0 0 C11.22 0 22.44 0 34 0 C34 3.63 34 7.26 34 11 C27.73 11 21.46 11 15 11 C15 14.63 15 18.26 15 22 C20.61 22 26.22 22 32 22 C33 29 33 29 32 33 C26.39 33 20.78 33 15 33 C15 36.96 15 40.92 15 45 C14.67 45 14.34 45 14 45 C14 40.71 14 36.42 14 32 C19.28 32 24.56 32 30 32 C30 29.03 30 26.06 30 23 C24.39 23 18.78 23 13 23 C13 18.71 13 14.42 13 10 C19.6 10 26.2 10 33 10 C33 7.03 33 4.06 33 1 C22.44 1 11.88 1 1 1 C1 18.82 1 36.64 1 55 C0.67 55 0.34 55 0 55 C0 36.85 0 18.7 0 0 Z " fill="#474747" transform="translate(74,48)"/>
<path d="M0 0 C1.32 0 2.64 0 4 0 C4 1.32 4 2.64 4 4 C2.68 4 1.36 4 0 4 C0 2.68 0 1.36 0 0 Z " fill="#329C97" transform="translate(362,7)"/>
<path d="" fill="#000000" transform="translate(0,0)"/>
<path d="" fill="#000000" transform="translate(0,0)"/>
<path d="" fill="#000000" transform="translate(0,0)"/>
<path d="" fill="#000000" transform="translate(0,0)"/>
<path d="" fill="#000000" transform="translate(0,0)"/>
<path d="" fill="#000000" transform="translate(0,0)"/>
<path d="" fill="#000000" transform="translate(0,0)"/>
<path d="" fill="#000000" transform="translate(0,0)"/>
<path d="" fill="#000000" transform="translate(0,0)"/>
<path d="" fill="#000000" transform="translate(0,0)"/>
<path d="" fill="#000000" transform="translate(0,0)"/>
<path d="" fill="#000000" transform="translate(0,0)"/>
<path d="" fill="#000000" transform="translate(0,0)"/>
<path d="" fill="#000000" transform="translate(0,0)"/>
<path d="" fill="#000000" transform="translate(0,0)"/>
<path d="" fill="#000000" transform="translate(0,0)"/>
<path d="" fill="#000000" transform="translate(0,0)"/>
<path d="" fill="#000000" transform="translate(0,0)"/>
<path d="" fill="#000000" transform="translate(0,0)"/>
<path d="" fill="#000000" transform="translate(0,0)"/>
<path d="" fill="#000000" transform="translate(0,0)"/>
<path d="" fill="#000000" transform="translate(0,0)"/>
<path d="" fill="#000000" transform="translate(0,0)"/>
<path d="" fill="#000000" transform="translate(0,0)"/>
<path d="" fill="#000000" transform="translate(0,0)"/>
<path d="" fill="#000000" transform="translate(0,0)"/>
<path d="" fill="#000000" transform="translate(0,0)"/>
<path d="" fill="#000000" transform="translate(0,0)"/>
<path d="" fill="#000000" transform="translate(0,0)"/>
<path d="" fill="#000000" transform="translate(0,0)"/>
<path d="" fill="#000000" transform="translate(0,0)"/>
<path d="" fill="#000000" transform="translate(0,0)"/>
<path d="" fill="#000000" transform="translate(0,0)"/>
<path d="" fill="#000000" transform="translate(0,0)"/>
<path d="" fill="#000000" transform="translate(0,0)"/>
<path d="" fill="#000000" transform="translate(0,0)"/>
<path d="" fill="#000000" transform="translate(0,0)"/>
<path d="" fill="#000000" transform="translate(0,0)"/>
<path d="" fill="#000000" transform="translate(0,0)"/>
<path d="" fill="#000000" transform="translate(0,0)"/>
<path d="" fill="#000000" transform="translate(0,0)"/>
<path d="" fill="#000000" transform="translate(0,0)"/>
<path d="" fill="#000000" transform="translate(0,0)"/>
<path d="" fill="#000000" transform="translate(0,0)"/>
<path d="" fill="#000000" transform="translate(0,0)"/>
</svg>
